<svg width="63" height="102" viewBox="0 0 63 102" fill="none" xmlns="http://www.w3.org/2000/svg">
<path d="M54.8361 77.3974C49.978 77.2538 48.3571 66.3095 55.0224 65.7491C62.6099 65.1099 62.9825 51.9101 62.9825 51.9101H62.9546C62.9779 51.66 62.9918 51.4099 62.9918 51.1552C62.9918 51.0486 62.9919 50.9375 62.9825 50.8309C63.1595 48.316 62.0976 33.1849 54.8361 32.9672C49.978 32.8236 48.3571 21.8793 55.0224 21.3189C61.4082 20.7816 62.6844 11.3426 62.9266 8.36916C62.9592 8.07737 62.9825 7.78096 62.9825 7.47991C62.9825 3.36249 59.6243 0.0231576 55.4835 0.0231576H46.154C45.5391 0.0231576 45.0547 0 44.4026 0H44.1185C43.5549 0 42.9075 0.0231576 42.2834 0.0231576H7.52232C3.38155 0.0231576 0.0232889 3.35785 0.0232889 7.47991C0.0232889 7.78096 0.04192 8.07737 0.0791823 8.36916C0.321387 11.3426 1.59762 20.7816 7.98344 21.3189C15.1005 21.9164 13.4843 32.8097 8.16975 32.9672C0.884979 33.1802 -0.163022 48.404 0.0232889 50.8495C0.0232889 50.8541 0.0232889 50.8634 0.0232889 50.868C0.00931556 51.0486 0 51.2293 0 51.4099C0 51.7434 0.0232889 52.0676 0.065209 52.3871C0.284125 55.2309 1.50912 64.9015 7.97878 65.4434C15.0959 66.0409 13.4796 76.9342 8.16509 77.0917C0.884979 77.3094 -0.163022 92.5285 0.0232889 94.9786C0.0326045 95.0898 0.0605512 95.1917 0.102471 95.2936C0.624143 98.9061 3.74486 101.68 7.52232 101.68H11.91L14.7745 101.778C14.7745 101.778 19.7024 101.287 20.4383 96.3727C20.4989 95.9698 20.5315 95.5483 20.5315 95.0898L20.4477 73.2012C20.4477 73.2012 20.443 73.0391 20.4337 72.9002V70.0981C20.4616 69.8989 20.4896 69.6998 20.5315 69.5052V59.7466C20.8948 57.7782 22.0919 56.1016 24.3649 55.7172H38.3988C38.5711 55.7496 38.6596 55.745 38.7807 55.7913C38.9251 55.8052 38.9856 55.8747 39.0928 55.8839C41.7104 56.1062 43.0519 57.9311 43.4152 60.0755V95.3769C43.4152 95.9651 43.527 96.5441 43.7319 97.0952C43.9136 97.9011 44.2163 98.5727 44.589 99.1331V99.147H44.5936C46.2564 101.662 49.2933 101.963 49.2933 101.963L49.3119 102L49.7638 101.986H55.4695C59.2423 101.986 62.3677 99.2118 62.8894 95.6039C62.9313 95.502 62.9592 95.3955 62.9686 95.2843C63.1549 92.8342 62.1069 77.615 54.8268 77.3974H54.8361ZM37.4299 35.1764C31.9012 41.8597 31.5099 48.9876 31.5052 51.5164C31.3748 48.7375 30.6342 41.8689 25.2592 35.3061C21.7146 30.9802 17.5924 28.5441 15.04 27.2843C17.639 25.8763 21.5981 23.3058 25.0449 19.0031C30.1778 12.6024 31.2304 6.05803 31.5006 3.05217C31.7009 5.94224 32.5998 12.607 37.8072 19.0633C41.3192 23.4216 45.3854 25.9412 47.9658 27.2797C45.4646 28.3912 41.1049 30.7255 37.4299 35.1671V35.1764Z" fill="#2A122A"/>
</svg>
