<svg width="58" height="102" viewBox="0 0 58 102" fill="none" xmlns="http://www.w3.org/2000/svg">
<path d="M29.6536 21.0092C42.3649 21.6369 55.3887 16.6474 57.3145 9.91402C57.7529 8.96075 58 7.90517 58 6.78915C58 2.65521 55.0996 0 50.9542 0H7.7934C3.64798 0 0.285957 3.35272 0.285957 7.48667C0.58439 10.7836 1.01339 12.7645 1.58227 13.9271C2.63611 17.2798 4.62255 20.679 8.37627 20.9952C8.99179 21.0464 9.53736 21.1766 10.027 21.3719C14.233 23.3435 12.4517 32.574 8.1711 32.7042C0.882817 32.9181 -0.171021 48.203 0.0201623 50.6629C0.0201623 50.7187 0.0341502 50.7698 0.0481392 50.8256C0.0341502 51.0209 0.0201623 51.2209 0.0201623 51.4208C0.0201623 51.5231 0.0201643 51.6208 0.0294903 51.7231H0.0201623C0.0201623 51.7231 0.388543 64.8364 7.87733 65.6036H7.83536C8.05452 65.6455 8.27369 65.678 8.50684 65.6966C8.5488 65.6966 8.58611 65.7059 8.62341 65.7106C14.5454 66.901 12.8761 77.1731 8.1711 77.3126C0.882817 77.5265 -0.171021 92.8114 0.0201623 95.2713C0.0294883 95.3829 0.0574655 95.4899 0.0994326 95.5922C0.626352 99.2146 3.75057 102 7.52761 102H30.4416C34.1301 101.898 37.1564 99.1495 37.6693 95.5922C37.7113 95.4899 37.7392 95.3829 37.7486 95.2713C37.9351 92.8114 36.816 76.3035 29.5976 77.3126C29.4344 77.3359 29.2712 77.3452 29.1127 77.3452C26.9957 76.9267 25.5874 73.7692 25.3729 71.0768L25.3543 71.5418V57.4567C25.7646 55.2386 27.1029 53.4855 29.6536 53.611C42.3649 54.2388 55.3887 49.2492 57.3145 42.5159C57.7529 41.5626 58 40.507 58 39.391C58 35.2571 55.0996 32.6019 50.9542 32.6019H28.8189C24.473 31.4765 23.2746 20.693 29.6536 21.0092Z" fill="#2A122A"/>
</svg>
