<svg width="37" height="123" viewBox="0 0 37 123" fill="none" xmlns="http://www.w3.org/2000/svg">
<path d="M27.8173 87.3723C33.5049 86.9377 35.3198 80.3961 35.8929 76.717C36.0578 76.1111 36.149 75.4745 36.149 74.8159C36.3444 72.4934 35.2459 58.0667 27.6263 57.8604C27.5698 57.8604 27.5134 57.8516 27.4526 57.8472H9.5474C9.49096 57.8472 9.43452 57.8604 9.37374 57.8604C1.74971 58.0624 0.655596 72.4934 0.850972 74.8159C0.850972 75.4745 0.942148 76.1111 1.10713 76.717C1.68024 80.3961 3.49073 86.9377 9.1827 87.3723C16.6331 87.9387 14.9398 98.2648 9.37374 98.4141C1.74971 98.616 0.655596 113.047 0.850972 115.37C0.850972 115.405 0.859656 115.44 0.868339 115.475C0.859656 115.629 0.850972 115.778 0.850972 115.932C0.850972 119.835 3.98134 123 7.84111 123H17.4059C17.7836 122.96 18.1483 122.908 18.5 122.838C18.856 122.908 19.2207 122.96 19.5941 123H29.1589C33.0187 123 36.149 119.835 36.149 115.932C36.149 115.778 36.1403 115.624 36.1317 115.475C36.1403 115.44 36.1447 115.405 36.149 115.37C36.3444 113.047 35.2459 98.6204 27.6263 98.4141C22.0645 98.2648 20.3713 87.9431 27.8173 87.3723Z" fill="#2A122A"/>
<path d="M37 27.6855C34.1041 26.1577 29.5323 23.2776 25.5857 18.299C19.7374 10.9144 18.7258 3.30154 18.5 0C18.1961 3.43325 17.0108 10.9144 11.245 18.2243C7.36787 23.1371 2.91762 26.0743 0 27.6855C0.894391 28.1334 1.96245 28.7129 3.12603 29.4461C5.68329 31.1276 8.69209 33.5554 11.4057 36.9843C17.2583 44.3645 18.2655 51.9817 18.4913 55.2833C18.4913 55.2789 18.4913 55.2701 18.4913 55.2657C18.4913 55.3008 18.4913 55.3403 18.4957 55.3755C18.4957 55.3184 18.4957 55.2569 18.4957 55.1955C18.8126 51.7271 20.0239 44.3118 25.742 37.0589C29.2327 32.6335 33.175 29.8236 36.0579 28.129C36.3878 27.9665 36.7048 27.8172 36.9913 27.6899L37 27.6855Z" fill="#2A122A"/>
</svg>
