<svg width="63" height="102" viewBox="0 0 63 102" fill="none" xmlns="http://www.w3.org/2000/svg">
<path d="M53.8165 75.9334C47.8409 75.7755 46.0216 64.8576 54.0218 64.2539C60.1327 63.7941 62.0826 56.8746 62.6983 52.983C62.8756 52.3421 62.9735 51.6687 62.9735 50.9721C63.1835 48.5155 62.0033 33.2554 53.8165 33.0372C47.8409 32.8793 46.0216 21.9613 54.0218 21.3576C61.0376 20.8328 62.5677 11.7957 62.8896 8.59133C62.9456 8.2291 62.9735 7.85758 62.9735 7.47678C62.9735 3.3483 59.6102 0 55.4632 0H45.1866C41.6833 0.362229 38.9171 2.91641 38.6372 6.44118H38.6139V7.02632V37.1796C38.3993 37.8111 38.0121 37.8019 37.6623 37.8855C37.2891 37.5929 36.5707 36.274 35.9269 34.983L26.6766 5.24303C25.8136 2.51238 22.9541 0.613003 19.8007 0.195046C19.2969 0.00928796 18.7791 0.102167 18.2379 0.0603715H7.5322C3.38518 0.0603715 0.0218424 3.40867 0.0218424 7.53715C0.0218424 7.91796 0.0498279 8.28947 0.105806 8.6517C0.427678 11.8514 1.95774 20.8885 8.97363 21.418C16.9785 22.017 15.1592 32.9396 9.17888 33.0975C0.987462 33.3111 -0.188074 48.5759 0.0218424 51.0325C0.0218424 51.7291 0.119802 52.4025 0.297065 53.0433C0.912821 56.935 2.85805 63.8545 8.97363 64.3142C16.9785 64.9133 15.1592 75.8359 9.17888 75.9938C0.987462 76.2074 -0.188074 91.4721 0.0218424 93.9288C0.0218424 93.9659 0.0311618 94.0031 0.0404914 94.0403C0.0311618 94.2028 0.0218424 94.3607 0.0218424 94.5232C0.0218424 98.6517 3.38518 102 7.5322 102H18.2379V101.967C21.8112 101.41 24.862 98.3916 24.862 94.7368V68.3313C24.862 68.3313 25.0952 61.8483 25.683 61.8483C25.8416 61.8483 25.9955 61.8019 26.1541 61.7786C26.4947 61.8483 26.8725 62.1873 27.339 63.3297C28.202 65.4334 29.5641 68.7121 29.5641 68.7121L38.6978 97.1192C39.071 98.2941 39.7661 99.3158 40.6804 100.133C41.8466 101.341 43.428 101.759 45.1913 101.94H55.4679C59.6149 101.94 62.9782 98.5913 62.9782 94.4629C62.9782 94.3003 62.9689 94.1378 62.9596 93.9799C62.9689 93.9427 62.9736 93.9056 62.9782 93.8684C63.1881 91.4118 62.0079 76.1517 53.8212 75.9334H53.8165Z" fill="#2A122A"/>
</svg>
