<svg width="55" height="102" viewBox="0 0 55 102" fill="none" xmlns="http://www.w3.org/2000/svg">
<path d="M45.7593 75.9784C39.7433 75.8204 37.9117 64.896 45.9659 64.2919C52.118 63.8319 54.0811 56.9083 54.701 53.0143C54.8795 52.3731 54.9781 51.6993 54.9781 51.0023C55.1894 48.5442 54.0013 33.2751 45.7593 33.0567C39.7433 32.8987 37.9117 21.9743 45.9659 21.3702C53.0291 20.8452 54.5695 11.8027 54.8935 8.59642C54.9499 8.23398 54.9781 7.86224 54.9781 7.48121C54.9781 3.35028 51.592 0 47.417 0H7.58302C3.40801 0 0.02199 3.35028 0.02199 7.48121C0.02199 7.86224 0.0501643 8.23398 0.10652 8.59642C0.430565 11.798 1.97096 20.8405 9.03419 21.3702C17.093 21.9697 15.2615 32.8987 9.24081 33.0567C0.994112 33.2705 -0.189344 48.5442 0.02199 51.0023C0.02199 51.6993 0.120611 52.3731 0.29907 53.0143C0.918982 56.9083 2.87734 63.8319 9.03419 64.2919C17.093 64.8913 15.2615 75.8204 9.24081 75.9784C0.994112 76.1922 -0.189344 91.4659 0.02199 93.924C0.02199 93.9612 0.0313723 93.9984 0.0407649 94.0355C0.0313723 94.1982 0.02199 94.3562 0.02199 94.5188C0.02199 98.6497 3.40801 102 7.58302 102H47.417C51.592 102 54.9781 98.6497 54.9781 94.5188C54.9781 94.3562 54.9687 94.1935 54.9593 94.0355C54.9687 93.9984 54.9734 93.9612 54.9781 93.924C55.1894 91.4659 54.0013 76.1968 45.7593 75.9784ZM33.4361 57.675C27.9039 64.3337 27.5094 71.4386 27.5 73.9524C27.3685 71.1876 26.6265 64.3384 21.2446 57.8051C17.6942 53.493 13.5708 51.0674 11.0113 49.8174C13.6131 48.4141 17.5767 45.8538 21.0285 41.5695C26.1663 35.1942 27.223 28.6702 27.4953 25.6777C27.6973 28.5541 28.599 35.1942 33.8119 41.6299C37.3294 45.9699 41.4011 48.4838 43.984 49.8128C41.4809 50.9233 37.1134 53.2467 33.4315 57.675H33.4361Z" fill="#2A122A"/>
</svg>
