<?xml version="1.0" encoding="UTF-8"?>
<svg id="Layer_2" data-name="Layer 2" xmlns="http://www.w3.org/2000/svg" viewBox="0 0 144.41 220.9">
  <defs>
    <style>
      .cls-1 {
        fill: #291329;
      }
    </style>
  </defs>
  <g id="Layer_1-2" data-name="Layer 1">
    <path class="cls-1" d="M128.29,0H16.14C7.25,0,.04,6.88.04,15.77H.04c-1.07,9.5,19.86,33.85,52.45,31.36,8.16,2.84,7.39,17.31,1.13,22.93-2.26,2.31-5.71,1.35-8.37,2.71-12.95,6.85-13.59,33.42-13.4,39.95h-.02s0,0,0,0c3.09,42.09,23.34,20.49,26.52,40,.69,9.56-3.82,14.99-13.1,15.98-11.96,5.47-13.78,32.88-13.41,37.67.8,6.33,5.28,12.04,11.5,13.8,3.13,1.27,15.29.44,18.71.67,9.33.03,25.57-.02,35.02,0h0c13.07-.97,17.7-12.03,15.05-24.9-1.23-9.5-4.51-22.85-12.2-26.95-5.36-1.78-10.72-1.56-12.64-8.29-6.97-29.76,23.63-3.41,25.46-47.98h-.1c-.24-12.28-1.42-25.88-8.83-36.13-2.14-2.69-5.31-4.71-8.82-4.77-8.19-.28-12.29-16.15-6.26-22.73,1.72-2.07,5.13-2.71,8.23-2.36,24.57,1.16,43.5-14.68,45.95-23.92C147.9,12.58,139.79-.28,128.29,0Z"/>
  </g>
</svg>