<?xml version="1.0" encoding="UTF-8"?>
<svg id="Layer_2" data-name="Layer 2" xmlns="http://www.w3.org/2000/svg" viewBox="0 0 570.44 482.02">
  <defs>
    <style>
      .cls-1 {
        fill: #231f20;
      }
    </style>
  </defs>
  <g id="Layer_6" data-name="Layer 6">
    <g>
      <path d="M216.48,47.6c27.26,1.35,55.19-9.38,59.32-23.86.94-2.05,1.47-4.32,1.47-6.72h0c0-8.89-6.22-14.6-15.11-14.6h-92.56c-8.89,0-16.1,7.21-16.1,16.1h0c.64,7.09,1.56,11.35,2.78,13.85,2.26,7.21,6.52,14.52,14.57,15.2,1.32.11,2.49.39,3.54.81,9.02,4.24,5.2,24.09-3.98,24.37-15.63.46-17.89,33.33-17.48,38.62,0,.12.03.23.06.35-.03.42-.06.85-.06,1.28h0c0,.22,0,.43.02.65h-.02s.79,28.2,16.85,29.85h-.09c.47.09.94.16,1.44.2.09,0,.17.02.25.03,12.7,2.56,9.12,24.65-.97,24.95-15.63.46-17.89,33.33-17.48,38.62.02.24.08.47.17.69,1.13,7.79,7.83,13.78,15.93,13.78h49.14c7.91-.22,14.4-6.13,15.5-13.78.09-.22.15-.45.17-.69.4-5.29-2-40.79-17.48-38.62-.35.05-.7.07-1.04.07-4.54-.9-7.56-7.69-8.02-13.48l-.04,1v-30.29c.88-4.77,3.75-8.54,9.22-8.27,27.26,1.35,55.19-9.38,59.32-23.86.94-2.05,1.47-4.32,1.47-6.72h0c0-8.89-6.22-14.6-15.11-14.6h-47.47c-9.32-2.42-11.89-25.61,1.79-24.93Z"/>
      <path class="cls-1" d="M544.77,164.17c-12.81-.34-16.71-23.85.44-25.15,13.1-.99,17.28-15.89,18.6-24.27.38-1.38.59-2.83.59-4.33h0c.45-5.29-2.08-38.15-19.63-38.62-12.81-.34-16.71-23.85.44-25.15,15.04-1.13,18.32-20.59,19.01-27.49.12-.78.18-1.58.18-2.4,0-8.89-7.21-16.1-16.1-16.1h-84.82c-8.89,0-16.1,7.21-16.1,16.1,0,.82.06,1.62.18,2.4.69,6.89,3.97,26.35,19.01,27.49,17.16,1.29,13.26,24.81.44,25.15-17.56.46-20.08,33.33-19.63,38.62h0c0,1.5.21,2.95.59,4.33,1.32,8.38,5.49,23.28,18.6,24.27,17.16,1.29,13.26,24.81.44,25.15-17.56.46-20.08,33.33-19.63,38.62,0,.08.02.16.04.24-.02.35-.04.69-.04,1.04h0c0,8.89,7.21,16.1,16.1,16.1h84.82c8.89,0,16.1-7.21,16.1-16.1h0c0-.35-.02-.7-.04-1.04.02-.08.03-.16.04-.24.45-5.29-2.08-38.15-19.63-38.62ZM518.53,124.77c-11.78,14.33-12.62,29.62-12.64,35.03-.28-5.95-1.86-20.69-13.32-34.75-7.56-9.28-16.34-14.5-21.79-17.19,5.54-3.02,13.98-8.53,21.33-17.75,10.94-13.72,13.19-27.76,13.77-34.2.43,6.19,2.35,20.48,13.45,34.33,7.49,9.34,16.16,14.75,21.66,17.61-5.33,2.39-14.63,7.39-22.47,16.92Z"/>
      <path d="M117.72,168.53c-10.43-.31-13.91-23.94.4-25.15,16.29-1.38,17.09-29.88,17.09-29.88h-.06c.05-.54.08-1.08.08-1.63h0c0-.23,0-.47-.02-.7.38-5.43-1.9-38.1-17.49-38.57-10.43-.31-13.91-23.94.4-25.15,13.71-1.16,16.45-21.54,16.97-27.96.07-.63.12-1.27.12-1.92,0,0,0,0,0,0,0-8.89-7.21-16.1-16.1-16.1h-20.03c-1.32,0-2.36-.05-3.76-.05h-.61c-1.21,0-2.6.05-3.94.05H16.14C7.25,1.47.04,8.68.04,17.57H.04s0,0,0,0c0,.65.04,1.29.12,1.92.52,6.42,3.26,26.8,16.97,27.96,15.28,1.29,11.81,24.81.4,25.15C1.89,73.07-.36,105.93.04,111.22c0,.01,0,.03,0,.04-.03.39-.05.78-.05,1.17h0c0,.72.05,1.42.14,2.11.47,6.14,3.1,27.02,16.99,28.19,15.28,1.29,11.81,24.81.4,25.15C1.89,168.34-.36,201.21.04,206.5c.02.24.08.46.17.68,1.12,7.8,7.82,13.79,15.93,13.79h9.42l6.15.21s10.58-1.06,12.16-11.67h0c.13-.87.2-1.78.2-2.77l-.18-47.26s-.01-.35-.03-.65v-6.05c.06-.43.12-.86.21-1.28v-21.07c.78-4.25,3.35-7.87,8.23-8.7h30.13c.37.07.56.06.82.16.31.03.44.18.67.2,5.62.48,8.5,4.42,9.28,9.05v76.22c0,1.27.24,2.52.68,3.71.39,1.74,1.04,3.19,1.84,4.4v.03s.01,0,.01,0c3.57,5.43,10.09,6.08,10.09,6.08l.04.08.97-.03h12.25c8.1,0,14.81-5.99,15.93-13.78.09-.22.15-.45.17-.69.4-5.29-1.85-38.15-17.48-38.62ZM80.35,77.37c-11.87,14.43-12.71,29.82-12.72,35.28-.28-6-1.87-20.83-13.41-35-7.61-9.34-16.46-14.6-21.94-17.32,5.58-3.04,14.08-8.59,21.48-17.88,11.02-13.82,13.28-27.95,13.86-34.44.43,6.24,2.36,20.63,13.54,34.57,7.54,9.41,16.27,14.85,21.81,17.74-5.37,2.4-14.73,7.44-22.62,17.03Z"/>
      <path d="M414.58,0h-112.15c-8.89,0-16.1,6.88-16.1,15.77h0c.01.52,0,1.54.29,2.58,1.37,4.95,13.18,29.17,46.72,28.4.04,0,.08,0,.11,0,.58-.01,1.16-.03,1.75-.06,0,0,0,0,0,0,1.34-.07,2.53.1,3.57.45,6.67,2.26,7.25,12.27,4.13,18.83-.24.5-.49.97-.77,1.42-.12.2-.25.4-.38.59-.44.64-.92,1.22-1.44,1.72-.13.13-.27.25-.41.37-.49.42-1.01.78-1.56,1.06-.85.43-1.76.68-2.74.71-.98.03-1.9.18-2.78.45-.02,0-.03.01-.05.02-.43.13-.84.29-1.24.47-11.96,5.47-13.78,32.88-13.41,37.67,0,.01,0,.03,0,.04,0,.05,0,.09.02.14,0,.06.02.11.03.17,0,0,0,0,0,0,0,0,0,0,0,0-.02.2-.03.4-.04.61-.01.22-.02.44-.02.67,0,0,0,0,0,0h0c0,.07,0,.13,0,.2,0,.15,0,.3.01.45h-.02s0,0,0,0c0,0,.3,10.84,4.36,19.48,2.52,5.37,6.49,9.88,12.73,10.41,6.01.51,8.88,4.98,9.42,10.01,0,.04,0,.07.01.11.27,2.68-.13,5.51-1.06,7.98-.14.37-.29.74-.46,1.09-.07.16-.15.32-.23.47-.76,1.5-1.73,2.79-2.89,3.75-.06.05-.12.1-.18.14-.47.37-.96.68-1.48.93-.04.02-.09.04-.13.06-.13.06-.26.11-.39.16-.7.27-1.44.42-2.22.45-.98.03-1.9.18-2.78.45-.02,0-.03.01-.05.02-.43.13-.84.29-1.24.47-11.96,5.47-13.78,32.88-13.41,37.67,0,0,0,.01,0,.02,0,.06.01.12.02.17,0,.04.02.08.02.12,0,.02,0,.04.01.05.01.05.03.1.04.15,0,0,0,0,0,.01.02.05.04.11.06.16,0,0,0,0,0,0,0,0,0,0,0,0,.03.21.07.42.11.63,0,.04.01.08.02.13.04.19.08.38.12.57.01.06.03.11.04.17.04.18.09.36.14.54.02.06.03.12.05.18.05.18.11.35.16.52.02.06.04.12.06.18.06.17.12.34.19.51.02.06.05.12.07.18.07.17.14.34.21.51.02.05.05.1.07.15.08.17.16.35.24.52.02.03.04.07.05.1.4.8.87,1.57,1.4,2.29.01.02.02.03.04.05.11.14.22.28.33.43.04.05.08.11.13.16.1.13.21.25.31.37.06.06.11.13.17.19.1.11.21.23.31.34.06.07.13.14.19.2.1.11.21.21.31.31.07.07.14.14.22.21.1.1.21.19.32.29.08.07.16.14.24.2.11.09.21.18.32.27.08.07.17.13.26.2.11.08.21.17.32.25.09.07.18.13.28.2.11.08.22.15.33.23.1.07.2.13.31.2.11.07.21.14.32.2.17.1.34.2.51.29.12.07.25.14.38.2.13.07.27.14.4.21.1.05.2.09.3.14.13.06.26.12.39.17.1.04.21.09.31.13.13.05.26.1.39.15.11.04.21.08.32.11.13.05.26.09.4.13.11.03.22.07.33.1.14.04.27.08.41.12.11.03.22.06.33.08.14.03.28.07.42.1.11.02.22.05.33.07.15.03.29.05.44.08.11.02.22.04.32.05.15.02.31.04.46.06.1.01.21.03.31.04.17.02.35.03.52.04.09,0,.17.01.26.02.26.01.53.02.79.02h49.14c2.22-.07,4.34-.58,6.25-1.45,0,0,0,0,0,0,.21-.1.42-.2.62-.3,0,0,.01,0,.02,0,.2-.1.4-.21.6-.32,0,0,0,0,0,0,1.21-.68,2.32-1.52,3.31-2.48,0,0,0,0,.01-.01.15-.15.3-.29.44-.45.02-.02.04-.05.07-.07.13-.14.27-.29.39-.44.03-.03.06-.06.08-.1.13-.15.25-.29.37-.44.03-.03.05-.07.08-.1.12-.15.24-.31.35-.46.02-.03.04-.06.06-.09.12-.17.24-.33.35-.5,0,0,0-.01.01-.02.5-.76.93-1.56,1.3-2.39,0-.02.02-.03.02-.05.08-.18.15-.36.22-.54.02-.05.04-.09.05-.14.07-.17.13-.35.19-.52.02-.06.04-.12.06-.17.06-.17.11-.34.16-.52.02-.06.04-.12.05-.19.05-.17.1-.35.14-.53.01-.06.03-.12.04-.18.04-.18.08-.37.12-.55,0-.05.02-.1.03-.14.04-.2.07-.4.1-.6,0,0,0,0,0,0,0,0,0,0,0,0,.02-.05.04-.11.06-.16,0,0,0,0,0-.01.02-.05.03-.1.04-.15,0-.02,0-.04.01-.05,0-.04.02-.08.02-.12.01-.06.02-.12.02-.19.12-1.57,0-5.57-.63-10.43-.07-.51-.14-1.03-.22-1.56-.07-.49-.15-.98-.23-1.48-.01-.08-.03-.17-.04-.25-.13-.78-.27-1.56-.43-2.36-.06-.33-.13-.66-.2-.99-1.76-8.34-5.09-17.13-11.07-20.32-.59-.31-1.2-.57-1.84-.77-.02,0-.03-.01-.05-.02-.88-.27-1.8-.42-2.78-.45-.78-.02-1.52-.18-2.22-.45-.13-.05-.26-.1-.39-.16-.04-.02-.09-.04-.13-.06-.52-.25-1.01-.56-1.48-.93-.06-.05-.12-.09-.18-.14-1.16-.96-2.13-2.25-2.89-3.75-.08-.16-.15-.31-.23-.47-.16-.36-.32-.72-.46-1.09-.93-2.47-1.32-5.3-1.06-7.98,0-.04,0-.07.01-.11.53-5.03,3.4-9.5,9.42-10.01,16.29-1.38,17.09-29.88,17.09-29.88h-.1s0,0,0,0c.03-.28.05-.57.07-.85,0,0,0-.01,0-.02.02-.29.03-.59.03-.88h0s0,0,0,0c0-.25,0-.5-.02-.74,0-.14-.02-.27-.03-.41,0-.1-.01-.2-.02-.29-.02-.18-.04-.36-.06-.54,0-.04,0-.08-.02-.12-.03-.21-.06-.41-.09-.62,0-.38-.02-.8-.04-1.25,0-.05,0-.11,0-.16,0-.11-.01-.22-.02-.33,0-.07,0-.14-.01-.22,0-.11-.01-.21-.02-.32,0-.08,0-.16-.01-.24,0-.11-.01-.22-.02-.33,0-.09-.01-.17-.02-.26,0-.11-.02-.22-.02-.33,0-.09-.01-.18-.02-.28,0-.11-.02-.22-.03-.34,0-.1-.02-.2-.03-.3,0-.11-.02-.22-.03-.34,0-.11-.02-.21-.03-.32-.01-.11-.02-.22-.03-.34-.01-.12-.02-.24-.04-.36-.01-.1-.02-.2-.03-.31-.02-.22-.05-.45-.07-.67,0-.09-.02-.18-.03-.27-.02-.15-.03-.3-.05-.45-.01-.1-.03-.21-.04-.31-.02-.14-.03-.28-.05-.42-.01-.11-.03-.22-.04-.33-.02-.14-.04-.27-.06-.41-.02-.11-.03-.22-.05-.33-.02-.14-.04-.28-.06-.42-.02-.11-.03-.22-.05-.34-.02-.14-.04-.29-.07-.43-.02-.11-.03-.23-.05-.34-.02-.15-.05-.3-.07-.44-.02-.11-.04-.22-.05-.33-.03-.16-.05-.32-.08-.47-.02-.1-.04-.21-.05-.31-.03-.18-.06-.35-.1-.53-.02-.09-.03-.17-.05-.26-.1-.53-.2-1.06-.32-1.6-.02-.08-.03-.16-.05-.23-.04-.19-.08-.38-.12-.57-.02-.1-.04-.19-.07-.29-.04-.17-.08-.34-.12-.51-.02-.1-.05-.21-.07-.31-.04-.16-.08-.33-.12-.49-.03-.11-.05-.22-.08-.32-.04-.16-.08-.32-.12-.49-.03-.11-.06-.22-.09-.33-.04-.16-.09-.32-.13-.49-.03-.11-.06-.21-.09-.32-.05-.17-.09-.33-.14-.5-.03-.1-.06-.2-.09-.3-.05-.18-.11-.36-.16-.53-.03-.09-.05-.17-.08-.26-.07-.22-.14-.44-.21-.66-.01-.04-.03-.09-.04-.13-.09-.27-.18-.53-.27-.79-.01-.04-.03-.08-.04-.12-.08-.22-.15-.44-.23-.65-.03-.08-.06-.16-.09-.24-.06-.17-.13-.35-.2-.52-.04-.09-.07-.18-.11-.28-.06-.16-.13-.32-.19-.48-.04-.1-.08-.19-.12-.29-.06-.15-.13-.3-.19-.45-.04-.1-.08-.2-.13-.29-.07-.15-.13-.29-.2-.44-.04-.1-.09-.19-.13-.29-.07-.15-.14-.29-.21-.44-.04-.09-.09-.18-.13-.27-.07-.15-.15-.3-.23-.45-.04-.08-.08-.17-.13-.25-.09-.16-.17-.32-.26-.49-.03-.06-.07-.13-.1-.19-.25-.45-.51-.88-.78-1.3-.04-.06-.08-.11-.11-.17-.1-.15-.19-.3-.29-.44-.05-.07-.1-.14-.15-.22-.09-.13-.18-.25-.27-.38-.06-.08-.11-.15-.17-.23-.09-.12-.18-.23-.27-.34-.06-.08-.12-.15-.18-.23-.09-.11-.18-.22-.27-.32-.06-.07-.13-.15-.19-.22-.09-.1-.19-.21-.28-.31-.06-.07-.13-.14-.19-.21-.1-.1-.2-.2-.3-.3-.06-.06-.13-.13-.19-.19-.11-.1-.22-.2-.33-.3-.06-.05-.12-.11-.18-.16-.13-.11-.27-.22-.4-.33-.04-.03-.08-.06-.11-.09-.18-.14-.35-.27-.54-.39-.04-.03-.08-.05-.12-.08-.14-.1-.28-.19-.43-.28-.07-.04-.13-.08-.2-.12-.12-.07-.24-.14-.36-.21-.08-.04-.15-.08-.23-.12-.12-.06-.23-.12-.35-.17-.08-.04-.16-.07-.25-.11-.12-.05-.23-.1-.35-.15-.09-.03-.17-.07-.26-.1-.12-.04-.24-.08-.36-.12-.09-.03-.18-.06-.27-.08-.12-.04-.25-.07-.37-.1-.09-.02-.18-.05-.27-.07-.13-.03-.27-.05-.4-.08-.09-.02-.17-.03-.26-.05-.15-.02-.3-.04-.45-.06-.07,0-.15-.02-.22-.03-.23-.02-.46-.04-.69-.04-7.44-.22-11.36-13.3-7.78-20.51.07-.14.14-.27.21-.41.17-.31.36-.61.56-.89.23-.32.48-.63.75-.92.01-.01.02-.02.03-.04,1.53-1.59,3.71-2.53,6.62-2.39,0,0,0,0,0,0,.53.03,1.05.04,1.57.06.16,0,.32,0,.48.01.41,0,.82.01,1.22.01.11,0,.22,0,.32,0,25.17-.13,41.03-14.95,43.93-23.94.94-2.05,1.47-4.32,1.47-6.72h0c0-8.89-7.21-16.1-16.1-16.1Z"/>
      <path d="M74.46,306.24c27.26,1.35,55.19-9.38,59.32-23.86.94-2.05,1.47-4.32,1.47-6.72h0c0-8.89-6.22-14.6-15.11-14.6H27.58c-8.89,0-16.1,7.21-16.1,16.1h0c.64,7.09,1.56,11.35,2.78,13.85,2.26,7.21,6.52,14.52,14.57,15.2,1.32.11,2.49.39,3.54.81,9.02,4.24,5.2,24.09-3.98,24.37-15.63.46-17.89,33.33-17.48,38.62,0,.12.03.23.06.35-.03.42-.06.85-.06,1.28h0c0,.22,0,.43.02.65h-.02s.79,28.2,16.85,29.85h-.09c.47.09.94.16,1.44.2.09,0,.17.02.25.03,12.7,2.56,9.12,24.65-.97,24.95-15.63.46-17.89,33.33-17.48,38.62.02.24.08.47.17.69,1.13,7.79,7.83,13.78,15.93,13.78h49.14c7.91-.22,14.4-6.13,15.5-13.78.09-.22.15-.45.17-.69.4-5.29-2-40.79-17.48-38.62-.35.05-.7.07-1.04.07-4.54-.9-7.56-6.69-8.02-12.48h-.04v-30.29c.88-4.77,3.75-8.54,9.22-8.27,27.26,1.35,55.19-9.38,59.32-23.86.94-2.05,1.47-4.32,1.47-6.72h0c0-8.89-6.22-14.6-15.11-14.6h-47.47c-9.32-2.42-11.89-25.61,1.79-24.93Z"/>
      <path class="cls-1" d="M242.69,425.48c-12.81-.34-16.71-23.85.44-25.15,13.1-.99,17.28-15.89,18.6-24.27.38-1.38.59-2.83.59-4.33h0c.45-5.29-2.08-38.15-19.63-38.62-12.81-.34-16.71-23.85.44-25.15,15.04-1.13,18.32-20.59,19.01-27.49.12-.78.18-1.58.18-2.4,0-8.89-7.21-16.1-16.1-16.1h-84.82c-8.89,0-16.1,7.21-16.1,16.1,0,.82.06,1.62.18,2.4.69,6.89,3.97,26.35,19.01,27.49,17.16,1.29,13.26,24.81.44,25.15-17.56.46-20.08,33.33-19.63,38.62h0c0,1.5.21,2.95.59,4.33,1.32,8.38,5.49,23.28,18.6,24.27,17.16,1.29,13.26,24.81.44,25.15-17.56.46-20.08,33.33-19.63,38.62,0,.08.02.16.04.24-.02.35-.04.69-.04,1.04h0c0,8.89,7.21,16.1,16.1,16.1h84.82c8.89,0,16.1-7.21,16.1-16.1h0c0-.35-.02-.7-.04-1.04.02-.08.03-.16.04-.24.45-5.29-2.08-38.15-19.63-38.62ZM216.45,386.08c-11.78,14.33-12.62,29.62-12.64,35.03-.28-5.95-1.86-20.69-13.32-34.75-7.56-9.28-16.34-14.5-21.79-17.19,5.54-3.02,13.98-8.53,21.33-17.75,10.94-13.72,13.19-27.76,13.77-34.2.43,6.19,2.35,20.48,13.45,34.33,7.49,9.34,16.16,14.75,21.66,17.61-5.33,2.39-14.63,7.39-22.47,16.92Z"/>
      <path d="M398.01,425.35c-12.81-.34-16.71-23.85.44-25.15,13.1-.99,17.28-15.89,18.6-24.27.38-1.38.59-2.83.59-4.33.45-5.29-2.08-38.15-19.63-38.62-12.81-.34-16.71-23.85.44-25.15,15.04-1.13,18.32-20.59,19.01-27.49.12-.78.18-1.58.18-2.4,0-8.89-7.21-16.1-16.1-16.1h-22.03c-7.51.78-13.44,6.28-14.04,13.87h-.05s0,1.26,0,1.26v64.93c-.46,1.36-1.29,1.34-2.04,1.52-.8-.63-2.34-3.47-3.72-6.25l-19.83-64.04c-1.85-5.88-7.98-9.97-14.74-10.87-1.08-.4-2.19-.2-3.35-.29h-22.95c-8.89,0-16.1,7.21-16.1,16.1,0,.82.06,1.62.18,2.4.69,6.89,3.97,26.35,19.01,27.49,17.16,1.29,13.26,24.81.44,25.15-17.56.46-20.08,33.33-19.63,38.62,0,1.5.21,2.95.59,4.33,1.32,8.38,5.49,23.28,18.6,24.27,17.16,1.29,13.26,24.81.44,25.15-17.56.46-20.08,33.33-19.63,38.62,0,.08.02.16.04.24-.02.35-.04.69-.04,1.04,0,8.89,7.21,16.1,16.1,16.1h22.95v-.07c7.66-1.2,14.2-7.7,14.2-15.57v-56.86s.5-13.96,1.76-13.96c.34,0,.67-.1,1.01-.15.73.15,1.54.88,2.54,3.34,1.85,4.53,4.77,11.59,4.77,11.59l19.58,61.17c.8,2.53,2.29,4.73,4.25,6.49,2.5,2.6,5.89,3.5,9.67,3.89h22.03c8.89,0,16.1-7.21,16.1-16.1,0-.35-.02-.7-.04-1.04.02-.08.03-.16.04-.24.45-5.29-2.08-38.15-19.63-38.62Z"/>
      <path d="M554.34,261.18h-112.15c-8.89,0-16.1,6.88-16.1,15.77.01.52,0,1.54.29,2.58,1.27,4.61,11.6,25.9,40.08,28.2,3.23.28,6.5.53,9.82.73.07,0,.13,0,.2.01.11.01.22.03.33.04,17.16,1.29,13.26,24.81.44,25.15-17.56.46-20.08,33.33-19.63,38.62,0,1.5.21,2.95.59,4.33,1.32,8.38,5.49,23.28,18.6,24.27,17.16,1.29,13.26,24.81.44,25.15-17.56.46-20.08,33.33-19.63,38.62,0,.08.02.16.04.24-.02.35-.04.69-.04,1.04,0,8.89,7.21,16.1,16.1,16.1h22.03c.87-.09,1.71-.21,2.52-.37.82.16,1.66.28,2.52.37h22.03c8.89,0,16.1-7.21,16.1-16.1,0-.35-.02-.7-.04-1.04.02-.08.03-.16.04-.24.45-5.29-2.08-38.15-19.63-38.62-12.81-.34-16.71-23.85.44-25.15,13.1-.99,17.28-15.89,18.6-24.27.38-1.38.59-2.83.59-4.33.45-5.29-2.08-38.15-19.63-38.62-12.81-.34-16.71-23.85.44-25.15.31-.02.6-.07.9-.1,3.1-.19,6.17-.41,9.19-.67,4.49-.12,15.74-1.55,26.95-9.4,6.65-4.65,10.84-10.13,12.2-14.33.94-2.05,1.47-4.32,1.47-6.72,0-8.89-7.21-16.1-16.1-16.1Z"/>
    </g>
  </g>
</svg>