<svg width="75" height="111" viewBox="0 0 75 111" fill="none" xmlns="http://www.w3.org/2000/svg">
<g clip-path="url(#clip0_3_27)">
<path d="M74.93 55.44C69.06 52.38 59.81 46.61 51.82 36.64C39.97 21.86 37.92 6.61 37.46 0C36.84 6.87 34.45 21.85 22.77 36.49C14.92 46.34 5.91 52.22 0 55.44C1.81 56.34 3.97 57.5 6.33 58.97C11.51 62.34 17.6 67.2 23.1 74.06C34.95 88.84 37 104.09 37.45 110.7C37.45 110.69 37.45 110.67 37.45 110.66C37.45 110.73 37.45 110.81 37.46 110.88C37.46 110.77 37.46 110.64 37.46 110.52C38.1 103.57 40.55 88.73 52.14 74.2C59.21 65.34 67.2 59.71 73.03 56.32C73.7 56 74.34 55.7 74.92 55.44H74.93Z" fill="#2A122A"/>
</g>
<defs>
<clipPath id="clip0_3_27">
<rect width="74.93" height="110.88" fill="white"/>
</clipPath>
</defs>
</svg>
